<svg width="51" height="55" viewBox="0 0 51 55" fill="none" xmlns="http://www.w3.org/2000/svg">
<path d="M41.25 25.3141C41.25 36.1872 32.4356 45.0016 21.5625 45.0016C10.6894 45.0016 1.875 36.1872 1.875 25.3141C1.875 14.441 10.6875 5.62659 21.5625 5.62659C32.4375 5.62659 41.25 14.441 41.25 25.3141Z" fill="url(#paint0_linear_56_29)"/>
<path d="M35.0625 42.1272C31.2381 45.2077 26.4732 46.884 21.5625 46.8766C9.65438 46.8766 0 37.2222 0 25.3141C0 13.406 9.65438 3.75159 21.5625 3.75159C33.4706 3.75159 43.125 13.406 43.125 25.3141C43.125 30.4235 41.3475 35.1185 38.3775 38.8141L49.9406 50.3753C50.3802 50.8149 50.6272 51.4112 50.6272 52.0328C50.6272 52.6545 50.3802 53.2507 49.9406 53.6903C49.501 54.1299 48.9048 54.3769 48.2831 54.3769C47.6614 54.3769 47.0652 54.1299 46.6256 53.6903L35.0625 42.1272ZM38.4375 25.3141C38.4375 20.8386 36.6596 16.5463 33.4949 13.3817C30.3302 10.217 26.038 8.43909 21.5625 8.43909C17.087 8.43909 12.7947 10.217 9.63007 13.3817C6.4654 16.5463 4.6875 20.8386 4.6875 25.3141C4.6875 29.7896 6.4654 34.0818 9.63007 37.2465C12.7947 40.4112 17.087 42.1891 21.5625 42.1891C26.038 42.1891 30.3302 40.4112 33.4949 37.2465C36.6596 34.0818 38.4375 29.7896 38.4375 25.3141Z" fill="url(#paint1_linear_56_29)"/>
<path d="M50.1377 23.7315L48.4146 23.1709C47.8918 22.9962 47.4166 22.7026 47.0265 22.3132C46.6364 21.9237 46.342 21.4491 46.1664 20.9265L45.6077 19.2053C45.5606 19.0729 45.4737 18.9583 45.3589 18.8773C45.244 18.7963 45.107 18.7528 44.9664 18.7528C44.8259 18.7528 44.6889 18.7963 44.574 18.8773C44.4592 18.9583 44.3723 19.0729 44.3252 19.2053L43.7646 20.9265C43.5939 21.446 43.3054 21.9189 42.9216 22.3082C42.5377 22.6976 42.069 22.9928 41.5521 23.1709L39.8289 23.7315C39.6966 23.7786 39.582 23.8656 39.501 23.9804C39.42 24.0952 39.3765 24.2323 39.3765 24.3728C39.3765 24.5133 39.42 24.6504 39.501 24.7652C39.582 24.88 39.6966 24.9669 39.8289 25.014L41.5521 25.5728C42.0755 25.7487 42.551 26.0438 42.9408 26.4349C43.3306 26.8261 43.6242 27.3025 43.7983 27.8265L44.359 29.5478C44.4061 29.6802 44.493 29.7947 44.6078 29.8758C44.7226 29.9568 44.8597 30.0003 45.0002 30.0003C45.1407 30.0003 45.2778 29.9568 45.3926 29.8758C45.5074 29.7947 45.5943 29.6802 45.6414 29.5478L46.2021 27.8265C46.3761 27.3035 46.6698 26.8283 47.0598 26.4387C47.4497 26.0491 47.9252 25.7558 48.4483 25.5822L50.1714 25.0215C50.3038 24.9744 50.4184 24.8875 50.4994 24.7727C50.5804 24.6579 50.6239 24.5208 50.6239 24.3803C50.6239 24.2398 50.5804 24.1027 50.4994 23.9879C50.4184 23.8731 50.3038 23.7861 50.1714 23.739L50.1377 23.7315Z" fill="url(#paint2_radial_56_29)"/>
<path d="M31.453 14.696C30.6611 13.6784 29.5871 12.9167 28.3649 12.506L25.2074 11.4822C24.9643 11.3963 24.7537 11.2371 24.6048 11.0265C24.4559 10.816 24.376 10.5645 24.376 10.3066C24.376 10.0487 24.4559 9.79717 24.6048 9.58663C24.7537 9.37608 24.9643 9.21688 25.2074 9.13096L28.3649 8.10533C29.2996 7.78271 30.1484 7.25131 30.8469 6.55149C31.5454 5.85167 32.0753 5.00184 32.3961 4.06658L32.4224 3.98783L33.448 0.834082C33.5336 0.590292 33.6927 0.379091 33.9035 0.229673C34.1142 0.0802556 34.3662 0 34.6246 0C34.8829 0 35.1349 0.0802556 35.3457 0.229673C35.5565 0.379091 35.7156 0.590292 35.8011 0.834082L36.8268 3.98783C37.1465 4.94722 37.6854 5.81888 38.4008 6.53362C39.1162 7.24836 39.9883 7.7865 40.948 8.10533L44.1036 9.13096L44.1674 9.14596C44.4105 9.23188 44.6211 9.39108 44.77 9.60163C44.9189 9.81217 44.9988 10.0637 44.9988 10.3216C44.9988 10.5795 44.9189 10.831 44.77 11.0415C44.6211 11.2521 44.4105 11.4113 44.1674 11.4972L41.0099 12.5228C40.0506 12.8419 39.1788 13.3802 38.4637 14.0949C37.7487 14.8096 37.21 15.6811 36.8905 16.6403L35.863 19.7941L35.833 19.8728C35.7345 20.104 35.5684 20.3 35.3564 20.435C35.1444 20.57 34.8966 20.6377 34.6454 20.6292C34.3942 20.6207 34.1515 20.5363 33.9492 20.3873C33.7469 20.2382 33.5944 20.0314 33.5118 19.7941L32.4843 16.6403C32.2524 15.9388 31.9038 15.2814 31.453 14.696Z" fill="url(#paint3_radial_56_29)"/>
<defs>
<linearGradient id="paint0_linear_56_29" x1="31.4062" y1="12.1891" x2="1.875" y2="45.0016" gradientUnits="userSpaceOnUse">
<stop stop-color="#FDFDFD"/>
<stop offset="0.8125" stop-color="#FF9966"/>
</linearGradient>
<linearGradient id="paint1_linear_56_29" x1="2.66437" y1="49.0478" x2="45.2963" y2="14.4072" gradientUnits="userSpaceOnUse">
<stop offset="0.0673077" stop-color="#FE6F5E"/>
<stop offset="1" stop-color="#FF6B6B"/>
</linearGradient>
<radialGradient id="paint2_radial_56_29" cx="0" cy="0" r="1" gradientUnits="userSpaceOnUse" gradientTransform="translate(19.9699 -23.5772) rotate(63.379) scale(64.3807 50.1319)">
<stop offset="0.718" stop-color="#FFCD0F"/>
<stop offset="0.991" stop-color="#E67505"/>
</radialGradient>
<radialGradient id="paint3_radial_56_29" cx="0" cy="0" r="1" gradientUnits="userSpaceOnUse" gradientTransform="translate(-1.22261 -51.9284) rotate(61.1996) scale(88.6815 69.0544)">
<stop offset="0.698" stop-color="#FFCD0F"/>
<stop offset="0.991" stop-color="#E67505"/>
</radialGradient>
</defs>
</svg>
