<svg width="50" height="45" viewBox="0 0 50 45" fill="none" xmlns="http://www.w3.org/2000/svg">
<path d="M2.0202 9.48855e-05C1.48441 9.48855e-05 0.970565 0.237148 0.591703 0.659104C0.212842 1.08106 0 1.65335 0 2.25009C0 2.84683 0.212842 3.41912 0.591703 3.84108C0.970565 4.26303 1.48441 4.50009 2.0202 4.50009H6.50505L11.8061 28.125C12.2566 30.1275 13.8667 31.5 15.7192 31.5H40.9111C42.7354 31.5 44.2848 30.15 44.7636 28.1925L50 6.75008H45.7697L40.9091 27H15.7172L10.4182 3.37509C10.1993 2.40585 9.6947 1.54647 8.98521 0.934549C8.27572 0.32263 7.40238 -0.00641909 6.50505 9.48855e-05H2.0202ZM38.3838 31.5C35.0606 31.5 32.3232 34.5488 32.3232 38.25C32.3232 41.9513 35.0606 45 38.3838 45C41.7071 45 44.4444 41.9513 44.4444 38.25C44.4444 34.5488 41.7071 31.5 38.3838 31.5ZM20.202 31.5C16.8788 31.5 14.1414 34.5488 14.1414 38.25C14.1414 41.9513 16.8788 45 20.202 45C23.5253 45 26.2626 41.9513 26.2626 38.25C26.2626 34.5488 23.5253 31.5 20.202 31.5ZM26.2626 9.48855e-05V11.2501H20.202L28.2828 20.2501L36.3636 11.2501H30.303V9.48855e-05H26.2626ZM20.202 36C21.3414 36 22.2222 36.981 22.2222 38.25C22.2222 39.519 21.3414 40.5 20.202 40.5C19.0626 40.5 18.1818 39.519 18.1818 38.25C18.1818 36.981 19.0626 36 20.202 36ZM38.3838 36C39.5232 36 40.404 36.981 40.404 38.25C40.404 39.519 39.5232 40.5 38.3838 40.5C37.2444 40.5 36.3636 39.519 36.3636 38.25C36.3636 36.981 37.2444 36 38.3838 36Z" fill="url(#paint0_linear_58_8)"/>
<defs>
<linearGradient id="paint0_linear_58_8" x1="2.63137" y1="40.2631" x2="41.144" y2="5.49383" gradientUnits="userSpaceOnUse">
<stop offset="0.0673077" stop-color="#FE6F5E"/>
<stop offset="1" stop-color="#FF6B6B"/>
</linearGradient>
</defs>
</svg>
