<svg width="50" height="50" viewBox="0 0 50 50" fill="none" xmlns="http://www.w3.org/2000/svg">
<path d="M47.17 14.5525C47.6032 14.9623 47.9511 15.4537 48.1937 15.9985C48.4364 16.5432 48.5689 17.1306 48.5838 17.7267C48.5987 18.3229 48.4955 18.9161 48.2804 19.4723C48.0652 20.0284 47.7422 20.5366 47.33 20.9675C47.2783 21.0225 47.225 21.0758 47.17 21.1275L40.565 27.7025L22.17 9.39L28.775 2.815C29.6109 1.94414 30.7571 1.43891 31.9638 1.40941C33.1706 1.37991 34.3401 1.82852 35.2175 2.6575C35.2725 2.70917 35.3258 2.7625 35.3775 2.8175L39.6225 7.0425L46.6975 0L50 3.285L42.925 10.33L47.17 14.5525ZM33.4925 28.165L30.1875 24.88L23.5875 31.455L18.635 26.52L25.235 19.9525L21.935 16.6625L15.33 23.2375L11.7925 19.9525L5.1925 26.52C4.75931 26.9298 4.41139 27.4212 4.16877 27.966C3.92614 28.5107 3.79358 29.0981 3.77871 29.6942C3.76384 30.2904 3.86695 30.8836 4.08212 31.4398C4.29729 31.9959 4.62028 32.5041 5.0325 32.935C5.0825 32.99 5.13583 33.0433 5.1925 33.095L9.435 37.32L0 46.7075L3.305 50L12.74 40.61L16.9825 44.835C17.8185 45.7066 18.9652 46.2123 20.1725 46.2418C21.3799 46.2713 22.5499 45.8222 23.4275 44.9925C23.4825 44.9408 23.5358 44.8875 23.5875 44.8325L30.1875 38.2625L26.8875 34.975L33.4925 28.165Z" fill="url(#paint0_linear_58_4)"/>
<defs>
<linearGradient id="paint0_linear_58_4" x1="2.63137" y1="44.7368" x2="44.7363" y2="10.5255" gradientUnits="userSpaceOnUse">
<stop offset="0.0673077" stop-color="#FE6F5E"/>
<stop offset="1" stop-color="#FF6B6B"/>
</linearGradient>
</defs>
</svg>
