<svg width="100" height="70" viewBox="0 0 100 70" fill="none" xmlns="http://www.w3.org/2000/svg">
<path d="M24.792 0.5H75.3916C76.5237 0.500115 77.4322 0.940894 78.1543 1.84961V1.85059C78.8732 2.75965 79.0969 3.74765 78.8398 4.85742V4.8584L75.9609 17.3877L75.8203 18H82.8447C84.0558 18 85.1989 18.2689 86.2803 18.8076L86.2822 18.8086C87.3665 19.3441 88.2531 20.0826 88.9492 21.0264L88.9531 21.0312L97.9961 33.0195V33.0205C98.6889 33.9425 99.1297 34.8906 99.3311 35.8662V35.8682C99.5376 36.8507 99.5558 37.8891 99.3799 38.9873L96.3701 54.1729V54.1748C96.2047 55.0319 95.7917 55.7053 95.126 56.2188C94.4493 56.7406 93.6883 56.9999 92.8252 57H89.8936V57.5C89.8936 60.8311 88.7251 63.6536 86.377 65.9961C84.0296 68.3377 81.1878 69.5032 77.8223 69.5C74.4561 69.4967 71.6126 68.3306 69.2617 65.9951H69.2607C66.907 63.6631 65.7354 60.841 65.7354 57.5V57H40.7285V57.5C40.7285 60.831 39.56 63.6537 37.2119 65.9961C34.8646 68.3377 32.0227 69.5032 28.6572 69.5H28.6562C25.2975 69.4999 22.4535 68.3344 20.0957 65.9951L20.0947 65.9941C17.7382 63.6657 16.5645 60.8441 16.5645 57.5V57H9.09961C8.11813 57 7.36662 56.6453 6.7959 55.9365C6.2242 55.2265 6.03371 54.4327 6.22363 53.5117L7.73438 47.9902H19.9102C22.8499 47.9901 25.3547 46.9734 27.3936 44.9443C29.4327 42.915 30.455 40.4199 30.4551 37.4902C30.4551 35.8811 30.102 34.3851 29.3926 33.0107C28.9048 32.0658 28.2855 31.2314 27.5352 30.5098H35.2852C38.2314 30.5097 40.7417 29.494 42.7842 27.4648C44.8266 25.4356 45.8506 22.9415 45.8506 20.0146C45.8505 17.0879 44.8264 14.5929 42.7842 12.5605C40.7418 10.528 38.2317 9.50983 35.2852 9.50977H18.3682L19.7217 4.64355L19.7246 4.63477L19.7266 4.625C20.0114 3.41613 20.6106 2.43175 21.5264 1.65625L21.5293 1.6543C22.3655 0.936246 23.365 0.550324 24.5518 0.504883L24.792 0.5ZM28.6455 49.5C26.4399 49.5036 24.5373 50.291 22.9648 51.8496L22.9639 51.8506C21.3917 53.4161 20.5977 55.3081 20.5977 57.5C20.5977 59.6919 21.3917 61.5839 22.9639 63.1494L22.9648 63.1504C24.5405 64.7122 26.4433 65.5 28.6465 65.5C30.8496 65.5 32.7525 64.7121 34.3281 63.1504L34.3291 63.1494C35.9014 61.5839 36.6963 59.6919 36.6963 57.5C36.6963 55.3081 35.9014 53.4161 34.3291 51.8506C32.7563 50.2845 30.8525 49.4965 28.6455 49.5ZM77.8115 49.5C75.6057 49.5035 73.7041 50.2914 72.1348 51.8506C70.5592 53.416 69.7627 55.3078 69.7627 57.5C69.7627 59.6919 70.5576 61.5839 72.1299 63.1494V63.1504C73.7058 64.7125 75.611 65.5 77.8174 65.5C79.8828 65.4999 81.6828 64.8073 83.1953 63.4336L83.4941 63.1494C85.0664 61.5839 85.8613 59.6919 85.8613 57.5C85.8613 55.3081 85.0664 53.4161 83.4941 51.8506C81.9215 50.2847 80.0183 49.4965 77.8115 49.5ZM74.7588 22.3857L70.3652 41.1357L70.2207 41.75H94.6797L94.7598 41.3477L95.6455 36.8975L95.6895 36.6777L95.5547 36.499L84.7939 22.1992L84.6445 22H74.8486L74.7588 22.3857ZM2.5166 35.4902H20.0303C20.62 35.4902 21.0902 35.6826 21.4746 36.0645C21.8589 36.4462 22.0518 36.912 22.0518 37.4951C22.0517 38.0782 21.8587 38.541 21.4756 38.9189C21.0909 39.2984 20.6219 39.4902 20.0352 39.4902H2.4209C1.8641 39.4902 1.42018 39.3017 1.05469 38.9229C0.68785 38.5426 0.500075 38.0749 0.5 37.4854C0.5 36.9022 0.693048 36.4385 1.07617 36.0605C1.46081 35.6812 1.9299 35.4902 2.5166 35.4902ZM12.4863 18.0098H35.1338C35.7234 18.0098 36.1937 18.2023 36.5781 18.584C36.9589 18.9653 37.1503 19.431 37.1504 20.0146C37.1504 20.5989 36.9583 21.0627 36.5781 21.4404C36.1982 21.8178 35.7287 22.0098 35.1338 22.0098H12.4912C11.9014 22.0097 11.4313 21.8174 11.0469 21.4355C10.6626 21.0538 10.4697 20.588 10.4697 20.0049C10.4698 19.4218 10.6628 18.959 11.0459 18.5811C11.4306 18.2015 11.8995 18.0098 12.4863 18.0098Z" fill="url(#paint0_linear_81_20)" stroke="url(#paint1_linear_81_20)"/>
<defs>
<linearGradient id="paint0_linear_81_20" x1="75" y1="11.6667" x2="27.3821" y2="87.2507" gradientUnits="userSpaceOnUse">
<stop stop-color="#FDFDFD"/>
<stop offset="0.8125" stop-color="#FF9966"/>
</linearGradient>
<linearGradient id="paint1_linear_81_20" x1="5.26274" y1="62.6315" x2="64.8217" y2="-6.50141" gradientUnits="userSpaceOnUse">
<stop offset="0.0673077" stop-color="#FE6F5E"/>
<stop offset="1" stop-color="#FF6B6B"/>
</linearGradient>
</defs>
</svg>
