<svg width="70" height="70" viewBox="0 0 70 70" fill="none" xmlns="http://www.w3.org/2000/svg">
<path d="M45.583 0.647461C46.7584 0.376933 47.9892 0.479832 49.1035 0.941406C50.1482 1.37414 51.0418 2.10239 51.6768 3.03418L51.8008 3.22363L56.7451 11.1074C57.2901 11.9766 58.0254 12.7109 58.8945 13.2559L66.7822 18.1963V18.1953C67.8029 18.8356 68.5989 19.7782 69.0596 20.8916C69.5203 22.0051 69.6225 23.2348 69.3525 24.4092L67.2705 33.4775C67.0403 34.4797 67.0402 35.5212 67.2705 36.5234L69.3477 45.5859V45.5869C69.6187 46.762 69.5164 47.9929 69.0557 49.1074C68.595 50.2215 67.7986 51.1642 66.7773 51.8047L58.8896 56.7441C58.0191 57.2883 57.2844 58.0231 56.7402 58.8936L51.8008 66.7773C51.1611 67.799 50.2189 68.5961 49.1055 69.0576C47.9921 69.5191 46.7626 69.622 45.5879 69.3525L36.5205 67.2715C35.5181 67.0411 34.4761 67.0411 33.4736 67.2715L24.4121 69.3525C22.0037 69.9048 19.5074 68.8697 18.1992 66.7773H18.1982L13.2588 58.8936V58.8926L13.0439 58.5732C12.5239 57.8428 11.8666 57.2205 11.1045 56.7441H11.1035L3.22266 51.8047C2.20102 51.165 1.40392 50.223 0.942383 49.1094C0.480945 47.996 0.37707 46.7665 0.646484 45.5918L2.72852 36.5234C2.95804 35.5228 2.95805 34.4831 2.72852 33.4824L0.646484 24.4092C0.378206 23.2353 0.482093 22.0068 0.943359 20.8945C1.40485 19.7819 2.2019 18.8406 3.22266 18.2012L11.1055 13.2607L11.1064 13.2598C11.9756 12.711 12.7096 11.9764 13.2539 11.1055L18.1934 3.22363C18.8333 2.20112 19.7763 1.40303 20.8906 0.941406C22.0049 0.479855 23.2358 0.376985 24.4111 0.647461H24.4121L33.4736 2.72949C34.4761 2.95991 35.5181 2.95991 36.5205 2.72949L45.583 0.647461ZM49.0137 19.957C48.3407 19.5587 47.5392 19.4368 46.7783 19.6172C46.0175 19.7977 45.356 20.2668 44.9336 20.9248L44.9238 20.9404L32.0645 42.7061L24.5625 35.5215C24.282 35.2367 23.9478 35.0101 23.5791 34.8555C23.2051 34.6986 22.803 34.6193 22.3975 34.6211C21.992 34.6229 21.5912 34.7062 21.2188 34.8662C20.8462 35.0263 20.5099 35.2598 20.2295 35.5527C19.9491 35.8457 19.7305 36.1921 19.5869 36.5713C19.4434 36.9504 19.3776 37.3547 19.3936 37.7598C19.4096 38.1649 19.5067 38.563 19.6797 38.9297C19.8502 39.2909 20.0913 39.6142 20.3877 39.8818V39.8828L30.6396 49.707C30.9684 50.0214 31.3641 50.2574 31.7969 50.3975C32.2297 50.5376 32.689 50.5778 33.1396 50.5156C33.5901 50.4535 34.0208 50.2909 34.3994 50.0391C34.7782 49.7871 35.0957 49.4522 35.3271 49.0605L50.1201 24.0146L50.124 24.0068L50.1289 23.999C50.5024 23.3121 50.5946 22.5067 50.3867 21.7529C50.1788 20.9991 49.6866 20.3553 49.0137 19.957Z" fill="url(#paint0_linear_81_14)" stroke="url(#paint1_linear_81_14)"/>
<defs>
<linearGradient id="paint0_linear_81_14" x1="52.5" y1="11.6667" x2="-3.47694e-06" y2="70" gradientUnits="userSpaceOnUse">
<stop stop-color="#FDFDFD"/>
<stop offset="0.8125" stop-color="#FF9966"/>
</linearGradient>
<linearGradient id="paint1_linear_81_14" x1="3.68391" y1="62.6315" x2="62.6309" y2="14.7358" gradientUnits="userSpaceOnUse">
<stop offset="0.0673077" stop-color="#FE6F5E"/>
<stop offset="1" stop-color="#FF6B6B"/>
</linearGradient>
</defs>
</svg>
