<svg width="103" height="70" viewBox="0 0 103 70" fill="none" xmlns="http://www.w3.org/2000/svg">
<path d="M51.5 0.5C62.3695 0.500033 72.2828 4.92019 80.3623 10.3232L81.1387 10.8496C89.3893 16.5006 95.9202 23.2706 99.8779 27.8242L99.8936 27.8418L99.9111 27.8584L99.9219 27.8691C101.609 29.901 102.517 32.4147 102.5 34.9971V35C102.5 37.5871 101.609 40.1239 99.9248 42.1279L99.9111 42.1416L99.8936 42.1582L99.8779 42.1758C96.0439 46.5871 89.7952 53.0786 81.9072 58.624L81.1387 59.1572C72.9211 64.7828 62.72 69.5 51.5 69.5C40.2797 69.5 30.078 64.7972 21.8613 59.1514V59.1504L21.0928 58.6172C13.205 53.0782 6.95617 46.5871 3.12207 42.1758L3.10645 42.1582L3.08887 42.1416L3.07227 42.126C1.38862 40.1149 0.5 37.5785 0.5 35C0.5 32.419 1.39071 29.8744 3.07617 27.8701L3.08887 27.8584L3.10645 27.8418L3.12207 27.8242C7.07985 23.2706 13.6107 16.5006 21.8613 10.8496C30.0788 5.21719 40.2799 0.5 51.5 0.5Z" fill="url(#paint0_linear_81_16)" stroke="url(#paint1_linear_81_16)"/>
<path d="M34.9463 35C34.9463 37.0683 35.3745 39.1164 36.2064 41.0273C37.0382 42.9381 38.2576 44.6744 39.7947 46.1369C41.3318 47.5995 43.1567 48.7596 45.1651 49.5511C47.1734 50.3426 49.326 50.75 51.4998 50.75C53.6737 50.75 55.8262 50.3426 57.8346 49.5511C59.843 48.7596 61.6678 47.5995 63.2049 46.1369C64.7421 44.6744 65.9614 42.9381 66.7933 41.0273C67.6252 39.1164 68.0534 37.0683 68.0534 35C68.0534 32.9317 67.6252 30.8836 66.7933 28.9727C65.9614 27.0619 64.7421 25.3256 63.2049 23.8631C61.6678 22.4005 59.843 21.2404 57.8346 20.4489C55.8262 19.6574 53.6737 19.25 51.4998 19.25C49.326 19.25 47.1734 19.6574 45.1651 20.4489C43.1567 21.2404 41.3318 22.4005 39.7947 23.8631C38.2576 25.3256 37.0382 27.0619 36.2064 28.9727C35.3745 30.8836 34.9463 32.9317 34.9463 35Z" fill="url(#paint2_linear_81_16)"/>
<defs>
<linearGradient id="paint0_linear_81_16" x1="77.25" y1="11.6667" x2="30.2524" y2="88.5039" gradientUnits="userSpaceOnUse">
<stop stop-color="#FDFDFD"/>
<stop offset="0.8125" stop-color="#FF9966"/>
</linearGradient>
<linearGradient id="paint1_linear_81_16" x1="5.42062" y1="62.6315" x2="64.6944" y2="-8.23444" gradientUnits="userSpaceOnUse">
<stop offset="0.0673077" stop-color="#FE6F5E"/>
<stop offset="1" stop-color="#FF6B6B"/>
</linearGradient>
<linearGradient id="paint2_linear_81_16" x1="36.6886" y1="47.4342" x2="63.4543" y2="24.5769" gradientUnits="userSpaceOnUse">
<stop offset="0.0673077" stop-color="#FE6F5E"/>
<stop offset="1" stop-color="#FF6B6B"/>
</linearGradient>
</defs>
</svg>
